# xmcd CD database file generated by Grip 2.96
# 
# Track frame offsets:
#       150
#       8387
#       16328
#       26995
#       40346
#       50046
#       58458
#       72757
#       82403
#       93831
#       108108
#       120957
#       131359
#       142074
#       153127
#       164638
#       177650
#       188858
#       199635
#       212637
#       226075
#       239849
#       250282
#       260944
#       271744
#       285822
#       295347
# 
# Disc length: 4118 seconds
# 
# Revision: 0
# Processed by: cddbd v1.4PL0 Copyright (c) Steve Scherf et al.
# Submitted via: Grip 2.96
# 
DISCID=8c10141b
DTITLE=Kilaueas/Surf patrouille - Get Your Stomping Exploding Eruptions with The Kilaueas
DYEAR=1900
DGENRE=
TTITLE0=Surfpatrouille - Surfpatrouille Orion
TTITLE1=Surfpatrouille - Venus Pussy Polka Riot
TTITLE2=Surfpatrouille - Warp VI
TTITLE3=Surfpatrouille - Man O'Surf
TTITLE4=Surfpatrouille - TelSka
TTITLE5=Surfpatrouille - P.O.P
TTITLE6=Surfpatrouille - Long Riders On Ventura
TTITLE7=Surfpatrouille - Brazil
TTITLE8=Surfpatrouille - Survest
TTITLE9=Surfpatrouille - Tony Soprano
TTITLE10=Surfpatrouille - Supernova #5
TTITLE11=Surfpatrouille - Miss Marple
TTITLE12=Surfpatrouille - Surfin' Marge
TTITLE13=Surfpatrouille - Sci-Fi/Lo-Fi
TTITLE14=Surfpatrouille - Godfather
TTITLE15=The Kilaueas - Surfin' THE EXOSPHERE
TTITLE16=The Kilaueas - Agent Magma
TTITLE17=The Kilaueas - Il Morte Charvallia Con Lui
TTITLE18=The Kilaueas - Venus kissed the Sea
TTITLE19=The Kilaueas - Puka Punch
TTITLE20=The Kilaueas - Tentacle Stomp
TTITLE21=The Kilaueas - Green Shadows
TTITLE22=The Kilaueas - Amazon
TTITLE23=The Kilaueas - Zarah Interstellar
TTITLE24=The Kilaueas - Watusi Island
TTITLE25=The Kilaueas - Negra Modelo
TTITLE26=The Kilaueas - Aquanautic Inferno
EXTD=
EXTT0=
EXTT1=
EXTT2=
EXTT3=
EXTT4=
EXTT5=
EXTT6=
EXTT7=
EXTT8=
EXTT9=
EXTT10=
EXTT11=
EXTT12=
EXTT13=
EXTT14=
EXTT15=
EXTT16=
EXTT17=
EXTT18=
EXTT19=
EXTT20=
EXTT21=
EXTT22=
EXTT23=
EXTT24=
EXTT25=
EXTT26=
PLAYORDER=
